<svg width="36" height="36" viewBox="0 0 36 36" fill="none" xmlns="http://www.w3.org/2000/svg">
<path fill-rule="evenodd" clip-rule="evenodd" d="M18 34.5C27.1127 34.5 34.5 27.1127 34.5 18C34.5 8.8873 27.1127 1.5 18 1.5C8.8873 1.5 1.5 8.8873 1.5 18C1.5 27.1127 8.8873 34.5 18 34.5ZM18 36C27.9411 36 36 27.9411 36 18C36 8.05887 27.9411 0 18 0C8.05887 0 0 8.05887 0 18C0 27.9411 8.05887 36 18 36Z" fill="white"/>
<path d="M17.8461 9.39004C23.4572 9.19983 27.0712 14.3354 26.881 18.2347C26.5956 23.9409 23.5523 26.4136 17.6559 26.794C13.4713 27.0793 8.90636 22.5143 9.00146 18.3298C9.19167 12.9089 14.2322 9.10472 17.8461 9.39004ZM16.9902 17.1885C16.5146 17.2836 15.944 17.4738 15.4685 17.5689C14.3273 17.9493 13.186 18.2347 11.9497 18.3298C10.6182 18.3298 10.428 18.7102 10.7133 20.0416C10.9035 20.8976 11.379 21.5633 11.9497 22.229C12.235 22.6095 12.5203 22.7045 12.9007 22.4192C14.4224 21.1829 15.944 19.9465 17.6559 19.0906C18.0363 18.9004 18.0363 18.52 17.9412 18.1396C17.751 17.664 17.5608 17.1885 16.9902 17.1885ZM19.0824 20.7074C17.0853 21.5633 15.3734 22.4192 14.1371 24.1311C15.7538 25.3675 17.4657 25.4626 19.1776 25.3674C19.9384 25.3674 20.3188 24.987 20.0335 24.2262C19.8433 23.0849 19.558 22.0388 19.0824 20.7074ZM12.5203 16.3326C12.7105 16.3326 13.0909 16.2375 13.4713 16.2375C14.5175 16.0473 15.944 16.1424 16.2293 15.2864C16.6097 14.2403 15.4685 13.2893 14.8028 12.3382C14.3273 11.5774 13.7566 11.7676 13.186 12.3382C12.4252 13.0991 11.7595 13.955 11.2839 14.8109C10.6182 16.0473 10.9035 16.4277 12.5203 16.3326ZM24.1229 13.5746C22.8866 14.3354 21.6503 15.0011 20.4139 15.762C20.3188 15.8571 20.1286 15.9522 20.0335 16.0473C19.3678 16.3326 19.3678 16.713 19.558 17.3787C19.7482 17.9494 20.1286 18.2347 20.6992 18.1396C21.5552 17.9494 22.316 17.7591 23.1719 17.664C25.9299 17.2836 26.1201 16.8081 24.6936 14.4305C24.5034 14.0501 24.3132 13.8599 24.1229 13.5746ZM22.5062 12.148C20.6041 10.7215 18.6069 11.0068 16.7049 10.7215C17.751 15.0011 18.5118 15.2864 21.7454 12.9089C21.9356 12.7186 22.1258 12.4333 22.5062 12.148ZM25.074 19.7563C20.6041 19.471 20.0335 19.1857 21.6503 23.8458C21.6503 23.9409 21.7453 23.9409 21.9356 24.036C23.7425 23.1801 24.5985 21.6584 25.074 19.7563Z" fill="white"/>
</svg>
