<svg width="1920" height="1080" viewBox="0 0 1920 1080" fill="none" xmlns="http://www.w3.org/2000/svg">
<g clip-path="url(#clip0_459_2)">
<rect width="1920" height="1080" fill="#FBFDFE"/>
<path d="M853.817 514.248C852.153 525.256 843.257 533.832 830.329 533.832C816.249 533.832 806.777 523.336 806.777 510.472C806.777 497.672 816.249 487.176 830.329 487.176C842.873 487.176 851.641 495.176 853.689 505.8H842.745C841.017 500.616 836.601 496.776 830.265 496.776C822.585 496.776 817.465 502.984 817.465 510.536C817.465 518.152 822.585 524.168 830.265 524.168C837.049 524.168 841.721 520.072 843.129 514.248H853.817ZM873.701 499.592C884.261 499.592 891.365 507.272 891.365 516.68C891.365 526.152 884.261 533.832 873.701 533.832C863.013 533.832 856.037 526.152 856.037 516.68C856.037 507.272 863.013 499.592 873.701 499.592ZM873.701 508.552C868.837 508.552 865.701 512.2 865.701 516.744C865.701 521.288 868.837 524.872 873.701 524.872C878.565 524.872 881.765 521.288 881.765 516.744C881.765 512.2 878.565 508.552 873.701 508.552ZM895.854 533V500.424H905.134V504.392C907.438 501 911.022 499.592 914.478 499.592C919.022 499.592 922.35 501.64 924.206 504.904C926.638 501.256 930.542 499.592 934.638 499.592C941.87 499.592 946.094 504.648 946.094 511.624V533H936.366V514.248C936.366 511.304 935.086 508.552 931.246 508.552C927.342 508.552 925.87 511.496 925.87 514.568V533H916.142V514.248C916.142 511.304 914.798 508.552 910.958 508.552C907.118 508.552 905.582 511.496 905.582 514.568V533H895.854ZM952.309 500.424H961.589V505.096C963.957 501.832 967.669 499.592 972.533 499.592C981.621 499.592 987.893 506.696 987.893 516.616C987.893 526.6 981.557 533.832 972.405 533.832C967.925 533.832 964.469 532.104 962.037 529.224V546.568H952.309V500.424ZM969.717 508.424C964.725 508.424 961.781 512.2 961.781 516.744C961.781 521.288 964.725 525.064 969.717 525.064C974.709 525.064 977.717 521.288 977.717 516.744C977.717 512.2 974.709 508.424 969.717 508.424ZM1010.69 529.288C1008.26 532.744 1004.48 533.832 1001.41 533.832C995.332 533.832 990.724 530.248 990.724 524.552C990.724 518.92 994.18 515.464 1002.31 513.672L1010.31 511.88V511.56C1010.31 509.192 1008.58 507.592 1005.76 507.592C1002.82 507.592 1001.03 509.128 1000.77 511.432H991.364C991.748 504.84 997.572 499.592 1005.96 499.592C1015.43 499.592 1019.91 505.288 1019.91 512.52V533H1010.69V529.288ZM1010.31 519.56V518.472L1004.87 519.624C1001.99 520.264 1000.26 521.352 1000.26 523.272C1000.26 525.32 1001.6 526.216 1003.97 526.216C1007.56 526.216 1010.31 522.888 1010.31 519.56ZM1026.03 533V500.424H1035.31V504.392C1037.68 501 1041.39 499.592 1044.98 499.592C1052.27 499.592 1056.62 504.648 1056.62 511.624V533H1046.9V514.376C1046.9 511.304 1045.62 508.552 1041.46 508.552C1037.36 508.552 1035.76 511.496 1035.76 514.568V533H1026.03ZM1067.73 485.192C1071.57 485.192 1073.81 487.816 1073.81 491.016C1073.81 494.088 1071.57 496.776 1067.73 496.776C1063.95 496.776 1061.71 494.088 1061.71 491.016C1061.71 487.816 1063.95 485.192 1067.73 485.192ZM1062.93 533V500.424H1072.65V533H1062.93ZM1094.81 499.592C1105.37 499.592 1112.47 507.272 1112.47 516.68C1112.47 526.152 1105.37 533.832 1094.81 533.832C1084.12 533.832 1077.14 526.152 1077.14 516.68C1077.14 507.272 1084.12 499.592 1094.81 499.592ZM1094.81 508.552C1089.94 508.552 1086.81 512.2 1086.81 516.744C1086.81 521.288 1089.94 524.872 1094.81 524.872C1099.67 524.872 1102.87 521.288 1102.87 516.744C1102.87 512.2 1099.67 508.552 1094.81 508.552ZM631.411 628V583.008H647.539C656.179 583.008 664.243 587.36 664.243 596.384C664.243 604.576 657.971 609.184 650.483 610.144L666.355 628H658.483L642.995 610.336H637.555V628H631.411ZM637.555 588.384V605.28H647.219C652.851 605.28 657.843 602.4 657.843 596.576C657.843 591.008 652.851 588.384 647.219 588.384H637.555ZM684.691 594.912C694.675 594.912 701.907 602.528 701.907 611.808C701.907 621.152 694.675 628.768 684.691 628.768C674.643 628.768 667.475 621.152 667.475 611.808C667.475 602.528 674.643 594.912 684.691 594.912ZM684.691 600.352C678.163 600.352 673.299 605.472 673.299 611.808C673.299 618.208 678.163 623.328 684.691 623.328C691.219 623.328 696.083 618.208 696.083 611.808C696.083 605.472 691.219 600.352 684.691 600.352ZM722.459 594.912C732.443 594.912 739.675 602.528 739.675 611.808C739.675 621.152 732.443 628.768 722.459 628.768C712.411 628.768 705.243 621.152 705.243 611.808C705.243 602.528 712.411 594.912 722.459 594.912ZM722.459 600.352C715.931 600.352 711.067 605.472 711.067 611.808C711.067 618.208 715.931 623.328 722.459 623.328C728.987 623.328 733.851 618.208 733.851 611.808C733.851 605.472 728.987 600.352 722.459 600.352ZM745.57 628V595.68H751.202V600.288C753.506 596.768 757.154 594.912 761.186 594.912C766.306 594.912 770.082 597.344 772.002 601.248C774.242 597.216 778.274 594.912 783.01 594.912C790.562 594.912 795.234 600.16 795.234 607.584V628H789.346V608.48C789.346 603.872 786.786 600.288 781.602 600.288C776.226 600.288 773.346 604.768 773.346 609.504V628H767.458V608.48C767.458 603.872 764.898 600.288 759.714 600.288C754.338 600.288 751.458 604.768 751.458 609.504V628H745.57ZM803.275 628V595.68H808.907V600.288C811.211 596.768 814.859 594.912 818.891 594.912C824.011 594.912 827.787 597.344 829.707 601.248C831.947 597.216 835.979 594.912 840.715 594.912C848.267 594.912 852.939 600.16 852.939 607.584V628H847.051V608.48C847.051 603.872 844.491 600.288 839.307 600.288C833.931 600.288 831.051 604.768 831.051 609.504V628H825.163V608.48C825.163 603.872 822.603 600.288 817.419 600.288C812.043 600.288 809.163 604.768 809.163 609.504V628H803.275ZM880.628 623.392C878.068 627.04 873.972 628.768 869.812 628.768C863.54 628.768 858.996 624.992 858.996 619.616C858.996 614.304 862.324 610.976 869.428 609.312L880.436 606.752V606.304C880.436 602.528 877.62 599.904 873.076 599.904C868.724 599.904 865.908 602.528 865.396 605.856H859.764C860.34 599.904 865.588 594.912 873.14 594.912C881.78 594.912 886.196 600.032 886.196 607.008V628H880.628V623.392ZM880.436 613.92V611.552L870.9 613.792C866.996 614.688 864.82 616.416 864.82 619.104C864.82 622.176 867.124 623.904 870.9 623.904C876.532 623.904 880.436 619.04 880.436 613.92ZM895.663 585.632L901.551 584.224V595.68H909.999V600.928H901.551V617.568C901.551 621.472 902.639 623.584 906.799 623.584C908.591 623.584 909.999 623.008 911.535 621.984V627.232C909.871 628.192 908.079 628.768 905.583 628.768C897.967 628.768 895.663 624.096 895.663 617.952V600.928H890.223V595.68H895.663V585.632ZM940.149 617.824H945.973C943.797 624.352 937.909 628.768 930.101 628.768C920.309 628.768 913.205 621.152 913.205 611.808C913.205 602.528 920.565 594.912 930.165 594.912C939.957 594.912 946.805 602.272 946.805 611.424V613.472H919.029C919.733 619.424 924.149 623.712 930.165 623.712C934.709 623.712 938.357 621.472 940.149 617.824ZM930.165 599.968C924.725 599.968 920.629 603.552 919.349 608.608H940.853C939.509 603.04 935.221 599.968 930.165 599.968ZM969.167 628V600.928H963.599V595.68H969.167V591.968C969.167 584.672 972.751 579.808 980.879 579.808C982.479 579.808 983.887 580 985.039 580.256V585.44C984.143 585.248 983.119 585.056 981.839 585.056C976.847 585.056 975.055 587.488 975.055 592.032V595.68H983.439V600.928H975.055V628H969.167ZM990.765 581.344C993.325 581.344 994.925 583.2 994.925 585.376C994.925 587.488 993.325 589.408 990.765 589.408C988.205 589.408 986.605 587.488 986.605 585.376C986.605 583.2 988.205 581.344 990.765 581.344ZM987.821 628V595.68H993.709V628H987.821ZM1002.27 628V595.68H1007.9V600.224C1010.27 596.768 1013.98 594.912 1018.21 594.912C1025.89 594.912 1030.62 600.16 1030.62 607.584V628H1024.74V608.928C1024.74 603.808 1022.18 600.288 1016.74 600.288C1011.17 600.288 1008.16 604.768 1008.16 609.504V628H1002.27ZM1052.43 628.768C1043.02 628.768 1036.17 621.472 1036.17 611.936C1036.17 602.272 1043.08 594.912 1052.62 594.912C1057.8 594.912 1062.03 597.216 1064.78 600.864V580.576H1070.67V628H1065.1V622.304C1062.35 626.208 1057.93 628.768 1052.43 628.768ZM1053.64 623.392C1060.23 623.392 1064.97 618.208 1064.97 611.872C1064.97 605.472 1060.23 600.288 1053.64 600.288C1046.99 600.288 1042.25 605.536 1042.25 611.872C1042.25 618.144 1046.99 623.392 1053.64 623.392ZM1082.19 581.344C1084.75 581.344 1086.35 583.2 1086.35 585.376C1086.35 587.488 1084.75 589.408 1082.19 589.408C1079.63 589.408 1078.03 587.488 1078.03 585.376C1078.03 583.2 1079.63 581.344 1082.19 581.344ZM1079.25 628V595.68H1085.14V628H1079.25ZM1093.7 628V595.68H1099.33V600.224C1101.7 596.768 1105.41 594.912 1109.64 594.912C1117.32 594.912 1122.05 600.16 1122.05 607.584V628H1116.16V608.928C1116.16 603.808 1113.6 600.288 1108.16 600.288C1102.6 600.288 1099.59 604.768 1099.59 609.504V628H1093.7ZM1133.74 629.536C1133.87 634.4 1138.16 637.536 1144.04 637.536C1150.12 637.536 1154.22 633.696 1154.22 628.064V621.088C1151.72 624.352 1147.82 626.464 1142.96 626.464C1134.19 626.464 1127.72 619.616 1127.72 610.72C1127.72 601.824 1134.25 594.912 1143.15 594.912C1148.2 594.912 1152.04 597.216 1154.54 600.608V595.68H1160.11V627.488C1160.11 636.128 1154.16 642.464 1144.04 642.464C1134.89 642.464 1128.11 637.024 1127.92 629.536H1133.74ZM1144.04 621.28C1150 621.28 1154.41 616.544 1154.41 610.72C1154.41 604.896 1150 600.16 1144.04 600.16C1137.96 600.16 1133.74 604.896 1133.74 610.72C1133.74 616.544 1137.96 621.28 1144.04 621.28ZM1202.28 623.392C1199.72 627.04 1195.62 628.768 1191.46 628.768C1185.19 628.768 1180.64 624.992 1180.64 619.616C1180.64 614.304 1183.97 610.976 1191.08 609.312L1202.08 606.752V606.304C1202.08 602.528 1199.27 599.904 1194.72 599.904C1190.37 599.904 1187.56 602.528 1187.04 605.856H1181.41C1181.99 599.904 1187.24 594.912 1194.79 594.912C1203.43 594.912 1207.84 600.032 1207.84 607.008V628H1202.28V623.392ZM1202.08 613.92V611.552L1192.55 613.792C1188.64 614.688 1186.47 616.416 1186.47 619.104C1186.47 622.176 1188.77 623.904 1192.55 623.904C1198.18 623.904 1202.08 619.04 1202.08 613.92ZM1215.9 595.68H1221.53V601.248C1224.28 597.408 1228.7 594.912 1234.14 594.912C1243.54 594.912 1250.39 602.208 1250.39 611.744C1250.39 621.408 1243.48 628.768 1233.94 628.768C1228.76 628.768 1224.54 626.464 1221.78 622.816V641.568H1215.9V595.68ZM1232.92 600.288C1226.33 600.288 1221.59 605.472 1221.59 611.808C1221.59 618.208 1226.33 623.392 1232.92 623.392C1239.58 623.392 1244.31 618.144 1244.31 611.808C1244.31 605.536 1239.58 600.288 1232.92 600.288ZM1256.35 595.68H1261.98V601.248C1264.73 597.408 1269.15 594.912 1274.59 594.912C1284 594.912 1290.85 602.208 1290.85 611.744C1290.85 621.408 1283.93 628.768 1274.4 628.768C1269.21 628.768 1264.99 626.464 1262.24 622.816V641.568H1256.35V595.68ZM1273.37 600.288C1266.78 600.288 1262.05 605.472 1262.05 611.808C1262.05 618.208 1266.78 623.392 1273.37 623.392C1280.03 623.392 1284.77 618.144 1284.77 611.808C1284.77 605.536 1280.03 600.288 1273.37 600.288Z" fill="black"/>
<rect x="-461" y="362.318" width="1413.37" height="561.927" transform="rotate(-39.7793 -461 362.318)" fill="#569AFF"/>
<path d="M97.2483 212V167.008H107.424V212H97.2483ZM114.185 212V179.424H123.465V183.392C125.833 180 129.545 178.592 133.129 178.592C140.425 178.592 144.777 183.648 144.777 190.624V212H135.049V193.376C135.049 190.304 133.769 187.552 129.609 187.552C125.513 187.552 123.913 190.496 123.913 193.568V212H114.185ZM166.247 191.136V199.648H150.439V191.136H166.247ZM172.22 179.424H181.5V184.096C183.868 180.832 187.58 178.592 192.444 178.592C201.532 178.592 207.804 185.696 207.804 195.616C207.804 205.6 201.468 212.832 192.316 212.832C187.836 212.832 184.38 211.104 181.948 208.224V225.568H172.22V179.424ZM189.628 187.424C184.636 187.424 181.692 191.2 181.692 195.744C181.692 200.288 184.636 204.064 189.628 204.064C194.62 204.064 197.628 200.288 197.628 195.744C197.628 191.2 194.62 187.424 189.628 187.424ZM222.091 197.28V212H212.363V179.424H221.643V184.992C223.883 180.576 227.403 178.784 230.923 178.784C231.691 178.784 232.395 178.848 232.907 178.976V188.128C232.267 188 231.371 187.808 230.347 187.808C224.267 187.808 222.091 192.416 222.091 197.28ZM251.182 178.592C261.742 178.592 268.846 186.272 268.846 195.68C268.846 205.152 261.742 212.832 251.182 212.832C240.494 212.832 233.518 205.152 233.518 195.68C233.518 186.272 240.494 178.592 251.182 178.592ZM251.182 187.552C246.318 187.552 243.182 191.2 243.182 195.744C243.182 200.288 246.318 203.872 251.182 203.872C256.046 203.872 259.246 200.288 259.246 195.744C259.246 191.2 256.046 187.552 251.182 187.552ZM281.271 213.472C281.527 216.48 284.215 218.4 288.375 218.4C293.111 218.4 295.607 215.584 295.607 211.616V206.368C293.431 208.864 290.231 210.464 286.071 210.464C277.367 210.464 271.479 203.872 271.479 194.592C271.479 185.376 277.431 178.592 286.391 178.592C290.807 178.592 294.007 180.384 296.183 183.2V179.424H305.335V210.656C305.335 219.552 299.831 226.464 288.439 226.464C278.839 226.464 272.055 220.832 271.735 213.472H281.271ZM288.695 201.888C293.111 201.888 295.927 198.624 295.927 194.528C295.927 190.496 293.111 187.168 288.695 187.168C284.279 187.168 281.527 190.496 281.527 194.528C281.527 198.624 284.279 201.888 288.695 201.888ZM321.518 197.28V212H311.79V179.424H321.07V184.992C323.31 180.576 326.83 178.784 330.35 178.784C331.118 178.784 331.822 178.848 332.334 178.976V188.128C331.694 188 330.798 187.808 329.774 187.808C323.694 187.808 321.518 192.416 321.518 197.28ZM357.33 201.44H366.738C364.754 208.352 358.866 212.832 350.226 212.832C339.858 212.832 332.946 205.216 332.946 195.744C332.946 186.272 340.306 178.592 350.354 178.592C360.914 178.592 367.378 185.888 367.378 195.232V198.176H342.226C343.058 202.272 345.938 205.024 350.354 205.024C353.682 205.024 355.922 203.872 357.33 201.44ZM350.354 186.464C346.514 186.464 343.826 188.576 342.674 191.776H357.97C356.946 188.448 354.194 186.464 350.354 186.464ZM397.872 189.344H387.952C387.952 186.592 386.032 186.016 384.176 186.016C382.256 186.016 380.592 186.72 380.592 188.32C380.592 189.984 381.808 190.56 384.624 191.2L387.248 191.776C393.648 193.184 398.448 195.36 398.448 201.888C398.448 209.184 392.432 212.832 384.56 212.832C376.048 212.832 369.968 209.44 369.52 201.376H379.76C379.76 204.384 381.744 205.472 384.304 205.472C386.8 205.472 388.4 204.576 388.4 202.72C388.4 200.928 387.056 200.224 384.688 199.712L381.552 199.072C375.792 197.92 370.736 195.68 370.736 189.024C370.736 182.304 376.88 178.592 384.304 178.592C391.728 178.592 397.296 181.984 397.872 189.344ZM428.952 189.344H419.032C419.032 186.592 417.112 186.016 415.256 186.016C413.336 186.016 411.672 186.72 411.672 188.32C411.672 189.984 412.888 190.56 415.704 191.2L418.328 191.776C424.728 193.184 429.528 195.36 429.528 201.888C429.528 209.184 423.512 212.832 415.64 212.832C407.128 212.832 401.048 209.44 400.6 201.376H410.84C410.84 204.384 412.824 205.472 415.384 205.472C417.88 205.472 419.48 204.576 419.48 202.72C419.48 200.928 418.136 200.224 415.768 199.712L412.632 199.072C406.872 197.92 401.816 195.68 401.816 189.024C401.816 182.304 407.96 178.592 415.384 178.592C422.808 178.592 428.376 181.984 428.952 189.344Z" fill="black"/>
</g>
<defs>
<clipPath id="clip0_459_2">
<rect width="1920" height="1080" fill="white"/>
</clipPath>
</defs>
</svg>
