<svg width="1920" height="1080" viewBox="0 0 1920 1080" fill="none" xmlns="http://www.w3.org/2000/svg">
<g clip-path="url(#clip0_461_66)">
<rect width="1920" height="1080" fill="#FBFDFE"/>
<path d="M842.293 533V509.128H837.365V500.424H842.293V497.672C842.293 489.928 845.685 484.744 854.837 484.744C857.141 484.744 858.869 485.064 860.341 485.384V493.896C859.445 493.704 857.909 493.384 856.501 493.384C853.365 493.384 852.021 494.664 852.021 497.8V500.424H859.637V509.128H852.021V533H842.293ZM877.92 499.592C888.48 499.592 895.584 507.272 895.584 516.68C895.584 526.152 888.48 533.832 877.92 533.832C867.232 533.832 860.256 526.152 860.256 516.68C860.256 507.272 867.232 499.592 877.92 499.592ZM877.92 508.552C873.056 508.552 869.92 512.2 869.92 516.744C869.92 521.288 873.056 524.872 877.92 524.872C882.784 524.872 885.984 521.288 885.984 516.744C885.984 512.2 882.784 508.552 877.92 508.552ZM915.625 499.592C926.185 499.592 933.289 507.272 933.289 516.68C933.289 526.152 926.185 533.832 915.625 533.832C904.937 533.832 897.961 526.152 897.961 516.68C897.961 507.272 904.937 499.592 915.625 499.592ZM915.625 508.552C910.761 508.552 907.625 512.2 907.625 516.744C907.625 521.288 910.761 524.872 915.625 524.872C920.489 524.872 923.689 521.288 923.689 516.744C923.689 512.2 920.489 508.552 915.625 508.552ZM939.579 491.272L949.307 488.968V500.424H956.923V509.128H949.307V521.096C949.307 524.104 950.459 525.256 953.211 525.256C954.939 525.256 956.219 524.872 957.563 524.04V532.552C955.899 533.32 953.915 533.832 950.907 533.832C942.587 533.832 939.579 529.224 939.579 521.928V509.128H934.715V500.424H939.579V491.272ZM992.831 500.424L976.383 546.568H966.591L971.007 533.96L958.527 500.424H968.831L975.807 520.776L982.783 500.424H992.831ZM996 500.424H1005.28V505.096C1007.65 501.832 1011.36 499.592 1016.22 499.592C1025.31 499.592 1031.58 506.696 1031.58 516.616C1031.58 526.6 1025.25 533.832 1016.1 533.832C1011.62 533.832 1008.16 532.104 1005.73 529.224V546.568H996V500.424ZM1013.41 508.424C1008.42 508.424 1005.47 512.2 1005.47 516.744C1005.47 521.288 1008.42 525.064 1013.41 525.064C1018.4 525.064 1021.41 521.288 1021.41 516.744C1021.41 512.2 1018.4 508.424 1013.41 508.424ZM1054.38 529.288C1051.95 532.744 1048.17 533.832 1045.1 533.832C1039.02 533.832 1034.41 530.248 1034.41 524.552C1034.41 518.92 1037.87 515.464 1046 513.672L1054 511.88V511.56C1054 509.192 1052.27 507.592 1049.45 507.592C1046.51 507.592 1044.72 509.128 1044.46 511.432H1035.05C1035.44 504.84 1041.26 499.592 1049.65 499.592C1059.12 499.592 1063.6 505.288 1063.6 512.52V533H1054.38V529.288ZM1054 519.56V518.472L1048.56 519.624C1045.68 520.264 1043.95 521.352 1043.95 523.272C1043.95 525.32 1045.29 526.216 1047.66 526.216C1051.25 526.216 1054 522.888 1054 519.56ZM1069.79 533V485.576H1079.51V533H1069.79ZM730.608 628V588.64H717.424V583.008H749.936V588.64H736.688V628H730.608ZM770.605 614.176V595.68H776.493V628H770.861V623.392C768.557 626.912 764.909 628.768 760.877 628.768C753.325 628.768 748.717 623.456 748.717 616.096V595.68H754.605V614.752C754.605 619.616 757.165 623.392 762.285 623.392C767.725 623.392 770.605 618.912 770.605 614.176ZM790.819 611.04V628H784.931V595.68H790.563V601.696C792.803 597.408 796.579 595.232 800.931 595.232C801.571 595.232 802.211 595.296 802.595 595.36V600.928C802.083 600.864 801.507 600.8 800.803 600.8C794.083 600.8 790.819 605.728 790.819 611.04ZM809.628 628V600.928H804.06V595.68H809.628V591.968C809.628 584.672 813.212 579.808 821.34 579.808C822.94 579.808 824.348 580 825.5 580.256V585.44C824.604 585.248 823.58 585.056 822.3 585.056C817.308 585.056 815.516 587.488 815.516 592.032V595.68H823.9V600.928H815.516V628H809.628ZM841.627 628V583.008H858.203C866.395 583.008 873.179 586.784 873.179 594.272C873.179 598.752 870.875 602.528 865.947 604.64C871.963 606.176 875.547 610.272 875.547 615.712C875.547 623.904 868.443 628 860.443 628H841.627ZM857.563 588.064H847.771V602.72H857.819C862.683 602.72 866.907 600.288 866.907 595.168C866.907 590.432 862.747 588.064 857.563 588.064ZM859.675 607.648H847.771V622.944H859.675C864.731 622.944 869.211 620.448 869.211 615.072C869.211 610.08 864.795 607.648 859.675 607.648ZM896.345 594.912C906.329 594.912 913.561 602.528 913.561 611.808C913.561 621.152 906.329 628.768 896.345 628.768C886.297 628.768 879.129 621.152 879.129 611.808C879.129 602.528 886.297 594.912 896.345 594.912ZM896.345 600.352C889.817 600.352 884.953 605.472 884.953 611.808C884.953 618.208 889.817 623.328 896.345 623.328C902.873 623.328 907.737 618.208 907.737 611.808C907.737 605.472 902.873 600.352 896.345 600.352ZM934.112 594.912C944.096 594.912 951.328 602.528 951.328 611.808C951.328 621.152 944.096 628.768 934.112 628.768C924.064 628.768 916.896 621.152 916.896 611.808C916.896 602.528 924.064 594.912 934.112 594.912ZM934.112 600.352C927.584 600.352 922.72 605.472 922.72 611.808C922.72 618.208 927.584 623.328 934.112 623.328C940.64 623.328 945.504 618.208 945.504 611.808C945.504 605.472 940.64 600.352 934.112 600.352ZM957.224 628V580.576H963.112V609.44L975.912 595.68H983.08L969.32 610.208L985.384 628H977.704L963.112 611.68V628H957.224ZM991.251 581.344C993.811 581.344 995.411 583.2 995.411 585.376C995.411 587.488 993.811 589.408 991.251 589.408C988.691 589.408 987.091 587.488 987.091 585.376C987.091 583.2 988.691 581.344 991.251 581.344ZM988.307 628V595.68H994.195V628H988.307ZM1002.76 628V595.68H1008.39V600.224C1010.76 596.768 1014.47 594.912 1018.69 594.912C1026.37 594.912 1031.11 600.16 1031.11 607.584V628H1025.22V608.928C1025.22 603.808 1022.66 600.288 1017.22 600.288C1011.65 600.288 1008.65 604.768 1008.65 609.504V628H1002.76ZM1042.8 629.536C1042.93 634.4 1047.22 637.536 1053.1 637.536C1059.18 637.536 1063.28 633.696 1063.28 628.064V621.088C1060.78 624.352 1056.88 626.464 1052.02 626.464C1043.25 626.464 1036.78 619.616 1036.78 610.72C1036.78 601.824 1043.31 594.912 1052.21 594.912C1057.26 594.912 1061.1 597.216 1063.6 600.608V595.68H1069.17V627.488C1069.17 636.128 1063.22 642.464 1053.1 642.464C1043.95 642.464 1037.17 637.024 1036.98 629.536H1042.8ZM1053.1 621.28C1059.06 621.28 1063.47 616.544 1063.47 610.72C1063.47 604.896 1059.06 600.16 1053.1 600.16C1047.02 600.16 1042.8 604.896 1042.8 610.72C1042.8 616.544 1047.02 621.28 1053.1 621.28ZM1111.33 623.392C1108.77 627.04 1104.68 628.768 1100.52 628.768C1094.25 628.768 1089.7 624.992 1089.7 619.616C1089.7 614.304 1093.03 610.976 1100.13 609.312L1111.14 606.752V606.304C1111.14 602.528 1108.33 599.904 1103.78 599.904C1099.43 599.904 1096.61 602.528 1096.1 605.856H1090.47C1091.05 599.904 1096.29 594.912 1103.85 594.912C1112.49 594.912 1116.9 600.032 1116.9 607.008V628H1111.33V623.392ZM1111.14 613.92V611.552L1101.61 613.792C1097.7 614.688 1095.53 616.416 1095.53 619.104C1095.53 622.176 1097.83 623.904 1101.61 623.904C1107.24 623.904 1111.14 619.04 1111.14 613.92ZM1124.95 595.68H1130.59V601.248C1133.34 597.408 1137.75 594.912 1143.19 594.912C1152.6 594.912 1159.45 602.208 1159.45 611.744C1159.45 621.408 1152.54 628.768 1143 628.768C1137.82 628.768 1133.59 626.464 1130.84 622.816V641.568H1124.95V595.68ZM1141.98 600.288C1135.39 600.288 1130.65 605.472 1130.65 611.808C1130.65 618.208 1135.39 623.392 1141.98 623.392C1148.63 623.392 1153.37 618.144 1153.37 611.808C1153.37 605.536 1148.63 600.288 1141.98 600.288ZM1165.41 595.68H1171.04V601.248C1173.79 597.408 1178.21 594.912 1183.65 594.912C1193.06 594.912 1199.91 602.208 1199.91 611.744C1199.91 621.408 1192.99 628.768 1183.46 628.768C1178.27 628.768 1174.05 626.464 1171.3 622.816V641.568H1165.41V595.68ZM1182.43 600.288C1175.84 600.288 1171.11 605.472 1171.11 611.808C1171.11 618.208 1175.84 623.392 1182.43 623.392C1189.09 623.392 1193.83 618.144 1193.83 611.808C1193.83 605.536 1189.09 600.288 1182.43 600.288Z" fill="black"/>
<rect x="-461" y="362.318" width="1413.37" height="561.927" transform="rotate(-39.7793 -461 362.318)" fill="#96FF56"/>
<path d="M97.2483 212V167.008H107.424V212H97.2483ZM114.185 212V179.424H123.465V183.392C125.833 180 129.545 178.592 133.129 178.592C140.425 178.592 144.777 183.648 144.777 190.624V212H135.049V193.376C135.049 190.304 133.769 187.552 129.609 187.552C125.513 187.552 123.913 190.496 123.913 193.568V212H114.185ZM166.247 191.136V199.648H150.439V191.136H166.247ZM172.22 179.424H181.5V184.096C183.868 180.832 187.58 178.592 192.444 178.592C201.532 178.592 207.804 185.696 207.804 195.616C207.804 205.6 201.468 212.832 192.316 212.832C187.836 212.832 184.38 211.104 181.948 208.224V225.568H172.22V179.424ZM189.628 187.424C184.636 187.424 181.692 191.2 181.692 195.744C181.692 200.288 184.636 204.064 189.628 204.064C194.62 204.064 197.628 200.288 197.628 195.744C197.628 191.2 194.62 187.424 189.628 187.424ZM222.091 197.28V212H212.363V179.424H221.643V184.992C223.883 180.576 227.403 178.784 230.923 178.784C231.691 178.784 232.395 178.848 232.907 178.976V188.128C232.267 188 231.371 187.808 230.347 187.808C224.267 187.808 222.091 192.416 222.091 197.28ZM251.182 178.592C261.742 178.592 268.846 186.272 268.846 195.68C268.846 205.152 261.742 212.832 251.182 212.832C240.494 212.832 233.518 205.152 233.518 195.68C233.518 186.272 240.494 178.592 251.182 178.592ZM251.182 187.552C246.318 187.552 243.182 191.2 243.182 195.744C243.182 200.288 246.318 203.872 251.182 203.872C256.046 203.872 259.246 200.288 259.246 195.744C259.246 191.2 256.046 187.552 251.182 187.552ZM281.271 213.472C281.527 216.48 284.215 218.4 288.375 218.4C293.111 218.4 295.607 215.584 295.607 211.616V206.368C293.431 208.864 290.231 210.464 286.071 210.464C277.367 210.464 271.479 203.872 271.479 194.592C271.479 185.376 277.431 178.592 286.391 178.592C290.807 178.592 294.007 180.384 296.183 183.2V179.424H305.335V210.656C305.335 219.552 299.831 226.464 288.439 226.464C278.839 226.464 272.055 220.832 271.735 213.472H281.271ZM288.695 201.888C293.111 201.888 295.927 198.624 295.927 194.528C295.927 190.496 293.111 187.168 288.695 187.168C284.279 187.168 281.527 190.496 281.527 194.528C281.527 198.624 284.279 201.888 288.695 201.888ZM321.518 197.28V212H311.79V179.424H321.07V184.992C323.31 180.576 326.83 178.784 330.35 178.784C331.118 178.784 331.822 178.848 332.334 178.976V188.128C331.694 188 330.798 187.808 329.774 187.808C323.694 187.808 321.518 192.416 321.518 197.28ZM357.33 201.44H366.738C364.754 208.352 358.866 212.832 350.226 212.832C339.858 212.832 332.946 205.216 332.946 195.744C332.946 186.272 340.306 178.592 350.354 178.592C360.914 178.592 367.378 185.888 367.378 195.232V198.176H342.226C343.058 202.272 345.938 205.024 350.354 205.024C353.682 205.024 355.922 203.872 357.33 201.44ZM350.354 186.464C346.514 186.464 343.826 188.576 342.674 191.776H357.97C356.946 188.448 354.194 186.464 350.354 186.464ZM397.872 189.344H387.952C387.952 186.592 386.032 186.016 384.176 186.016C382.256 186.016 380.592 186.72 380.592 188.32C380.592 189.984 381.808 190.56 384.624 191.2L387.248 191.776C393.648 193.184 398.448 195.36 398.448 201.888C398.448 209.184 392.432 212.832 384.56 212.832C376.048 212.832 369.968 209.44 369.52 201.376H379.76C379.76 204.384 381.744 205.472 384.304 205.472C386.8 205.472 388.4 204.576 388.4 202.72C388.4 200.928 387.056 200.224 384.688 199.712L381.552 199.072C375.792 197.92 370.736 195.68 370.736 189.024C370.736 182.304 376.88 178.592 384.304 178.592C391.728 178.592 397.296 181.984 397.872 189.344ZM428.952 189.344H419.032C419.032 186.592 417.112 186.016 415.256 186.016C413.336 186.016 411.672 186.72 411.672 188.32C411.672 189.984 412.888 190.56 415.704 191.2L418.328 191.776C424.728 193.184 429.528 195.36 429.528 201.888C429.528 209.184 423.512 212.832 415.64 212.832C407.128 212.832 401.048 209.44 400.6 201.376H410.84C410.84 204.384 412.824 205.472 415.384 205.472C417.88 205.472 419.48 204.576 419.48 202.72C419.48 200.928 418.136 200.224 415.768 199.712L412.632 199.072C406.872 197.92 401.816 195.68 401.816 189.024C401.816 182.304 407.96 178.592 415.384 178.592C422.808 178.592 428.376 181.984 428.952 189.344Z" fill="black"/>
</g>
<defs>
<clipPath id="clip0_461_66">
<rect width="1920" height="1080" fill="white"/>
</clipPath>
</defs>
</svg>
